<svg width="487" height="81" viewBox="0 0 487 81" fill="none" xmlns="http://www.w3.org/2000/svg">
<path d="M0.0318611 0.0526822C8.37497 0.00390471 16.7669 0.0526792 25.1588 0.00390173C25.9882 0.00390173 27.0128 -0.0936488 27.5495 0.686791C36.039 9.12529 44.4797 17.6126 52.9692 26.0511C52.9692 17.3687 52.9692 8.6863 52.9692 0.0526822C62.0929 0.00390471 71.1679 0.00390173 80.2916 0.00390173C80.2916 26.7827 80.2916 53.5128 80.2916 80.2429C71.363 80.2916 62.3856 80.2916 53.4571 80.2916C44.7236 71.658 36.0878 62.8781 27.3543 54.2445C27.3543 62.9268 27.3543 71.6092 27.3543 80.2916C18.2306 80.2916 9.10683 80.2916 0.0318611 80.2429C0.0318611 71.1215 -0.0657161 62.0001 0.0806543 52.8787C8.71651 52.9275 17.3524 52.9275 25.9882 52.8787C17.4012 44.1963 8.66771 35.5627 0.0318611 26.9291C-0.016929 17.954 0.0318611 8.97896 0.0318611 0.0526822Z" fill="#20D374"/>
<path d="M63.2158 63.043C66.678 63.043 70.1402 63.043 73.6511 63.043C73.6511 66.5305 73.6511 69.9689 73.6511 73.4565C70.1402 73.5056 66.678 73.4565 63.2158 73.4565C63.2158 70.018 63.2158 66.5305 63.2158 63.043Z" fill="#063B39"/>
<path d="M95.0823 57.7732V17.7374H101.866L120.438 45.9571V17.7374H127.222V57.7732H120.438L101.866 29.5535V57.7732H95.0823Z" fill="white"/>
<path d="M144.92 58.6073C141.917 58.6073 139.294 57.9307 137.052 56.5777C134.809 55.2246 133.067 53.3618 131.825 50.9893C130.601 48.5983 129.99 45.8551 129.99 42.7598C129.99 39.6088 130.62 36.8471 131.88 34.4746C133.141 32.1021 134.892 30.2486 137.135 28.9141C139.378 27.5795 141.973 26.9123 144.92 26.9123C147.941 26.9123 150.573 27.5888 152.816 28.9419C155.058 30.2949 156.801 32.167 158.043 34.558C159.284 36.9305 159.905 39.6644 159.905 42.7598C159.905 45.8737 159.275 48.6261 158.015 51.0171C156.773 53.3896 155.031 55.2524 152.788 56.6055C150.545 57.94 147.922 58.6073 144.92 58.6073ZM144.92 52.3239C147.589 52.3239 149.572 51.4342 150.87 49.6548C152.167 47.8754 152.816 45.5771 152.816 42.7598C152.816 39.8498 152.158 37.5329 150.842 35.8091C149.526 34.0668 147.552 33.1957 144.92 33.1957C143.122 33.1957 141.639 33.6034 140.471 34.419C139.322 35.216 138.47 36.3374 137.914 37.7831C137.357 39.2103 137.079 40.8692 137.079 42.7598C137.079 45.6698 137.737 47.9959 139.053 49.7382C140.388 51.462 142.343 52.3239 144.92 52.3239Z" fill="white"/>
<path d="M173.583 58.6073C169.876 58.6073 166.864 57.7732 164.547 56.105C162.23 54.4369 160.821 52.0922 160.321 49.071L167.16 48.0145C167.512 49.4973 168.291 50.665 169.496 51.5176C170.7 52.3702 172.22 52.7965 174.055 52.7965C175.668 52.7965 176.91 52.4814 177.781 51.8512C178.67 51.2025 179.115 50.3221 179.115 49.21C179.115 48.5242 178.948 47.9774 178.615 47.5696C178.3 47.1433 177.595 46.7355 176.502 46.3463C175.408 45.9571 173.731 45.4659 171.47 44.8728C168.949 44.2055 166.947 43.4919 165.464 42.732C163.981 41.9535 162.916 41.036 162.267 39.9795C161.618 38.923 161.294 37.6441 161.294 36.1427C161.294 34.2707 161.785 32.6396 162.767 31.2495C163.75 29.8593 165.121 28.7936 166.882 28.0522C168.643 27.2922 170.719 26.9123 173.11 26.9123C175.445 26.9123 177.512 27.2737 179.31 27.9966C181.126 28.7194 182.591 29.7481 183.703 31.0827C184.815 32.4172 185.501 33.9834 185.76 35.7813L178.921 37.0046C178.754 35.7257 178.17 34.7155 177.169 33.9741C176.187 33.2327 174.871 32.8157 173.221 32.723C171.646 32.6303 170.376 32.8713 169.412 33.4459C168.448 34.0019 167.966 34.7897 167.966 35.8091C167.966 36.3837 168.161 36.8749 168.55 37.2826C168.94 37.6904 169.718 38.0982 170.886 38.506C172.072 38.9137 173.833 39.4142 176.168 40.0073C178.559 40.619 180.468 41.3233 181.896 42.1203C183.341 42.8988 184.379 43.8348 185.009 44.9284C185.658 46.0219 185.983 47.3472 185.983 48.9041C185.983 51.9254 184.88 54.2979 182.674 56.0216C180.487 57.7454 177.456 58.6073 173.583 58.6073Z" fill="white"/>
<path d="M206.335 57.7732C204.352 58.1439 202.405 58.3014 200.496 58.2458C198.606 58.2088 196.91 57.8659 195.408 57.2171C193.907 56.5499 192.767 55.5026 191.989 54.0754C191.303 52.778 190.942 51.4527 190.904 50.0997C190.867 48.7466 190.849 47.2175 190.849 45.5122V19.4056H197.521V45.123C197.521 46.3278 197.531 47.3843 197.549 48.2925C197.586 49.2007 197.781 49.9421 198.133 50.5167C198.8 51.6288 199.866 52.2497 201.33 52.3795C202.795 52.5092 204.463 52.4351 206.335 52.157V57.7732ZM185.4 33.001V27.7463H206.335V33.001H185.4Z" fill="white"/>
<path d="M209.455 57.7732V27.7463H215.377V35.0584L214.654 34.1131C215.025 33.1123 215.516 32.204 216.128 31.3885C216.758 30.5544 217.509 29.8686 218.38 29.3311C219.121 28.8306 219.937 28.4414 220.827 28.1634C221.735 27.8668 222.662 27.6907 223.607 27.6351C224.552 27.561 225.47 27.5981 226.359 27.7463V34.0019C225.47 33.7424 224.441 33.659 223.273 33.7517C222.124 33.8444 221.086 34.1688 220.159 34.7248C219.233 35.2253 218.473 35.8647 217.88 36.6432C217.305 37.4217 216.879 38.3113 216.601 39.3122C216.323 40.2946 216.184 41.3604 216.184 42.5095V57.7732H209.455Z" fill="white"/>
<path d="M228.885 23.1867V17.0423H235.585V23.1867H228.885ZM228.885 57.7732V27.7463H235.585V57.7732H228.885Z" fill="white"/>
<path d="M237.241 57.7732L248.223 42.5929L237.463 27.7463H245.359L252.115 37.3383L258.76 27.7463H266.656L255.896 42.5929L266.934 57.7732H259.038L252.115 47.8476L245.137 57.7732H237.241Z" fill="white"/>
<path d="M292.757 58.6073C288.754 58.6073 285.325 57.7361 282.47 55.9938C279.616 54.233 277.419 51.7863 275.881 48.6539C274.361 45.5215 273.601 41.8886 273.601 37.7553C273.601 33.622 274.361 29.9891 275.881 26.8567C277.419 23.7242 279.616 21.2869 282.47 19.5446C285.325 17.7837 288.754 16.9033 292.757 16.9033C297.372 16.9033 301.218 18.0618 304.295 20.3786C307.372 22.677 309.531 25.7816 310.773 29.6925L304.017 31.5553C303.239 28.9419 301.914 26.903 300.041 25.4387C298.169 23.9559 295.741 23.2145 292.757 23.2145C290.07 23.2145 287.827 23.8169 286.029 25.0217C284.25 26.2265 282.906 27.9224 281.998 30.1096C281.108 32.2782 280.654 34.8267 280.635 37.7553C280.635 40.6838 281.08 43.2417 281.97 45.4288C282.878 47.5974 284.231 49.2841 286.029 50.4889C287.827 51.6937 290.07 52.2961 292.757 52.2961C295.741 52.2961 298.169 51.5547 300.041 50.0719C301.914 48.589 303.239 46.5502 304.017 43.9553L310.773 45.818C309.531 49.729 307.372 52.8428 304.295 55.1597C301.218 57.4581 297.372 58.6073 292.757 58.6073Z" fill="white"/>
<path d="M313.541 57.7732V27.7463H319.463V35.0584L318.741 34.1131C319.111 33.1123 319.602 32.204 320.214 31.3885C320.844 30.5544 321.595 29.8686 322.466 29.3311C323.207 28.8306 324.023 28.4414 324.913 28.1634C325.821 27.8668 326.748 27.6907 327.693 27.6351C328.638 27.561 329.556 27.5981 330.445 27.7463V34.0019C329.556 33.7424 328.527 33.659 327.359 33.7517C326.21 33.8444 325.172 34.1688 324.245 34.7248C323.319 35.2253 322.559 35.8647 321.966 36.6432C321.391 37.4217 320.965 38.3113 320.687 39.3122C320.409 40.2946 320.27 41.3604 320.27 42.5095V57.7732H313.541Z" fill="white"/>
<path d="M345.523 58.6073C342.483 58.6073 339.814 57.9493 337.516 56.6333C335.217 55.3173 333.419 53.4916 332.122 51.1562C330.843 48.8207 330.203 46.1331 330.203 43.0934C330.203 39.8127 330.834 36.9675 332.094 34.558C333.354 32.1299 335.106 30.2486 337.349 28.9141C339.591 27.5795 342.186 26.9123 345.133 26.9123C348.247 26.9123 350.889 27.6444 353.057 29.1087C355.244 30.5544 356.866 32.6025 357.923 35.2531C358.979 37.9036 359.378 41.0267 359.118 44.6225H352.473V42.1759C352.455 38.9137 351.88 36.532 350.75 35.0306C349.619 33.5293 347.84 32.7786 345.411 32.7786C342.668 32.7786 340.629 33.6312 339.295 35.3365C337.96 37.0232 337.293 39.4976 337.293 42.7598C337.293 45.7995 337.96 48.1535 339.295 49.8216C340.629 51.4898 342.576 52.3239 345.133 52.3239C346.783 52.3239 348.201 51.9624 349.387 51.2396C350.592 50.4982 351.519 49.4324 352.168 48.0423L358.785 50.0441C357.635 52.7502 355.856 54.8539 353.446 56.3552C351.055 57.8566 348.414 58.6073 345.523 58.6073ZM335.18 44.6225V39.5625H355.837V44.6225H335.18Z" fill="white"/>
<path d="M369.839 58.6073C367.67 58.6073 365.835 58.1995 364.334 57.3839C362.832 56.5499 361.693 55.447 360.914 54.0754C360.154 52.7038 359.774 51.1932 359.774 49.5436C359.774 48.0979 360.015 46.8004 360.497 45.6512C360.979 44.4835 361.72 43.4826 362.721 42.6486C363.722 41.7959 365.02 41.1009 366.614 40.5634C367.818 40.1741 369.227 39.822 370.84 39.5069C372.471 39.1918 374.232 38.9045 376.122 38.645C378.031 38.3669 380.024 38.0704 382.1 37.7553L379.709 39.1176C379.727 37.0417 379.264 35.5125 378.319 34.5302C377.373 33.5478 375.779 33.0566 373.536 33.0566C372.183 33.0566 370.877 33.3717 369.616 34.0019C368.356 34.6321 367.475 35.7164 366.975 37.2548L360.858 35.3365C361.6 32.7972 363.009 30.7583 365.084 29.2199C367.179 27.6815 369.996 26.9123 373.536 26.9123C376.206 26.9123 378.55 27.3478 380.57 28.219C382.609 29.0901 384.12 30.5173 385.102 32.5006C385.64 33.5571 385.964 34.6414 386.075 35.7535C386.187 36.8471 386.242 38.0426 386.242 39.34V57.7732H380.376V51.2674L381.349 52.3239C379.996 54.4925 378.411 56.0865 376.595 57.1059C374.797 58.1068 372.545 58.6073 369.839 58.6073ZM371.173 53.2692C372.693 53.2692 373.991 53.0004 375.066 52.4629C376.141 51.9254 376.993 51.2674 377.623 50.4889C378.272 49.7104 378.708 48.9783 378.93 48.2925C379.282 47.4399 379.477 46.4668 379.514 45.3732C379.57 44.2611 379.597 43.3622 379.597 42.6764L381.655 43.288C379.634 43.6031 377.901 43.8811 376.456 44.1221C375.01 44.363 373.768 44.5947 372.73 44.8172C371.692 45.021 370.775 45.2527 369.978 45.5122C369.199 45.7902 368.541 46.1146 368.004 46.4853C367.466 46.856 367.049 47.2823 366.753 47.7642C366.475 48.2461 366.336 48.8115 366.336 49.4602C366.336 50.2016 366.521 50.8596 366.892 51.4342C367.262 51.9902 367.8 52.4351 368.504 52.7687C369.227 53.1023 370.117 53.2692 371.173 53.2692Z" fill="white"/>
<path d="M407.743 57.7732C405.76 58.1439 403.814 58.3014 401.905 58.2458C400.014 58.2088 398.318 57.8659 396.817 57.2171C395.315 56.5499 394.176 55.5026 393.397 54.0754C392.711 52.778 392.35 51.4527 392.313 50.0997C392.276 48.7466 392.257 47.2175 392.257 45.5122V19.4056H398.93V45.123C398.93 46.3278 398.939 47.3843 398.958 48.2925C398.995 49.2007 399.189 49.9421 399.541 50.5167C400.209 51.6288 401.274 52.2497 402.739 52.3795C404.203 52.5092 405.871 52.4351 407.743 52.157V57.7732ZM386.808 33.001V27.7463H407.743V33.001H386.808Z" fill="white"/>
<path d="M411.42 23.1867V17.0423H418.12V23.1867H411.42ZM411.42 57.7732V27.7463H418.12V57.7732H411.42Z" fill="white"/>
<path d="M431.23 57.7732L420.332 27.7463H427.032L434.594 49.5158L442.129 27.7463H448.857L437.959 57.7732H431.23Z" fill="white"/>
<path d="M463.076 58.6073C460.036 58.6073 457.367 57.9493 455.068 56.6333C452.77 55.3173 450.972 53.4916 449.675 51.1562C448.396 48.8207 447.756 46.1331 447.756 43.0934C447.756 39.8127 448.387 36.9675 449.647 34.558C450.907 32.1299 452.659 30.2486 454.902 28.9141C457.144 27.5795 459.739 26.9123 462.686 26.9123C465.8 26.9123 468.442 27.6444 470.61 29.1087C472.797 30.5544 474.419 32.6025 475.476 35.2531C476.532 37.9036 476.931 41.0267 476.671 44.6225H470.026V42.1759C470.008 38.9137 469.433 36.532 468.303 35.0306C467.172 33.5293 465.393 32.7786 462.964 32.7786C460.221 32.7786 458.182 33.6312 456.848 35.3365C455.513 37.0232 454.846 39.4976 454.846 42.7598C454.846 45.7995 455.513 48.1535 456.848 49.8216C458.182 51.4898 460.129 52.3239 462.686 52.3239C464.336 52.3239 465.754 51.9624 466.94 51.2396C468.145 50.4982 469.072 49.4324 469.72 48.0423L476.338 50.0441C475.188 52.7502 473.409 54.8539 470.999 56.3552C468.608 57.8566 465.967 58.6073 463.076 58.6073ZM452.733 44.6225V39.5625H473.39V44.6225H452.733Z" fill="white"/>
<path d="M479.564 57.7732V50.9059H486.432V57.7732H479.564Z" fill="#20D374"/>
<path d="M238.172 80.0677V74.8634L234.096 67.5565H235.835L238.928 73.091L242.012 67.5565H243.752L239.684 74.8634V80.0677H238.172Z" fill="white"/>
<path d="M246.771 80.3284C245.869 80.3284 245.091 80.117 244.435 79.6941C243.785 79.2713 243.284 78.6863 242.931 77.9391C242.578 77.1919 242.401 76.3346 242.401 75.3673C242.401 74.3827 242.581 73.5196 242.939 72.7782C243.298 72.0368 243.805 71.4605 244.46 71.0493C245.116 70.6322 245.886 70.4237 246.771 70.4237C247.679 70.4237 248.461 70.6351 249.116 71.0579C249.772 71.475 250.273 72.0571 250.62 72.8043C250.973 73.5457 251.15 74.4 251.15 75.3673C251.15 76.3462 250.973 77.2093 250.62 77.9565C250.267 78.6979 249.763 79.28 249.108 79.7028C248.452 80.1199 247.673 80.3284 246.771 80.3284ZM246.771 78.8601C247.713 78.8601 248.413 78.5357 248.872 77.887C249.332 77.2382 249.561 76.3984 249.561 75.3673C249.561 74.3074 249.329 73.4646 248.864 72.839C248.399 72.2077 247.701 71.892 246.771 71.892C246.138 71.892 245.617 72.0397 245.208 72.3351C244.799 72.6305 244.494 73.0389 244.292 73.5602C244.09 74.0815 243.99 74.6839 243.99 75.3673C243.99 76.4215 244.225 77.2672 244.696 77.9043C245.166 78.5415 245.858 78.8601 246.771 78.8601Z" fill="white"/>
<path d="M255.773 80.311C255.191 80.311 254.689 80.2154 254.269 80.0243C253.855 79.8331 253.51 79.5783 253.235 79.2597C252.961 78.9411 252.745 78.5878 252.588 78.1997C252.431 77.8117 252.319 77.4149 252.252 77.0094C252.191 76.604 252.16 76.2246 252.16 75.8713V70.6843H253.672V75.3847C253.672 75.8249 253.712 76.2507 253.79 76.6619C253.869 77.0732 254 77.4439 254.185 77.774C254.376 78.1042 254.628 78.3648 254.941 78.556C255.261 78.7471 255.659 78.8427 256.135 78.8427C256.51 78.8427 256.852 78.7761 257.16 78.6428C257.468 78.5096 257.732 78.3127 257.95 78.052C258.169 77.7856 258.337 77.4496 258.454 77.0442C258.572 76.6387 258.631 76.1667 258.631 75.628L259.614 75.9408C259.614 76.8444 259.454 77.6234 259.135 78.2779C258.821 78.9325 258.376 79.4364 257.799 79.7897C257.227 80.1372 256.552 80.311 255.773 80.311ZM258.799 80.0677V77.5568H258.631V70.6843H260.135V80.0677H258.799Z" fill="white"/>
<path d="M261.816 80.0677V70.6843H263.152V72.952L262.934 72.6566C263.04 72.367 263.177 72.1005 263.345 71.8573C263.519 71.614 263.712 71.4142 263.925 71.2578C264.161 71.0608 264.427 70.9102 264.724 70.806C265.021 70.7017 265.323 70.6409 265.631 70.6235C265.939 70.6004 266.228 70.6206 266.497 70.6843V72.1353C266.183 72.0484 265.839 72.0252 265.463 72.0658C265.088 72.1063 264.74 72.2482 264.421 72.4915C264.13 72.7058 263.903 72.9665 263.74 73.2735C263.583 73.5804 263.474 73.9135 263.413 74.2726C263.351 74.6259 263.32 74.988 263.32 75.3587V80.0677H261.816Z" fill="white"/>
<path d="M274.275 80.3284C273.423 80.3284 272.706 80.1112 272.123 79.6768C271.541 79.2365 271.098 78.6428 270.795 77.8956C270.498 77.1427 270.35 76.2999 270.35 75.3673C270.35 74.4232 270.498 73.5776 270.795 72.8304C271.098 72.0832 271.541 71.4953 272.123 71.0666C272.712 70.638 273.431 70.4237 274.283 70.4237C275.123 70.4237 275.846 70.6409 276.451 71.0753C277.062 71.5039 277.53 72.0919 277.855 72.839C278.18 73.5862 278.342 74.429 278.342 75.3673C278.342 76.3057 278.18 77.1485 277.855 77.8956C277.53 78.6428 277.062 79.2365 276.451 79.6768C275.846 80.1112 275.121 80.3284 274.275 80.3284ZM270.098 80.0677V67.5565H271.602V73.1605H271.434V80.0677H270.098ZM274.09 78.9122C274.689 78.9122 275.185 78.7558 275.577 78.443C275.969 78.1302 276.264 77.7074 276.46 77.1745C276.656 76.6358 276.754 76.0335 276.754 75.3673C276.754 74.707 276.656 74.1104 276.46 73.5776C276.269 73.0447 275.972 72.6218 275.569 72.3091C275.171 71.9963 274.664 71.8399 274.048 71.8399C273.459 71.8399 272.972 71.9905 272.585 72.2917C272.199 72.5871 271.91 73.0012 271.72 73.5341C271.529 74.0612 271.434 74.6723 271.434 75.3673C271.434 76.0508 271.527 76.6619 271.711 77.2006C271.902 77.7335 272.193 78.1534 272.585 78.4604C272.978 78.7616 273.479 78.9122 274.09 78.9122Z" fill="white"/>
<path d="M279.512 80.0677V70.6843H280.848V72.952L280.63 72.6566C280.736 72.367 280.874 72.1005 281.042 71.8573C281.215 71.614 281.409 71.4142 281.622 71.2578C281.857 71.0608 282.123 70.9102 282.42 70.806C282.717 70.7017 283.019 70.6409 283.328 70.6235C283.636 70.6004 283.924 70.6206 284.193 70.6843V72.1353C283.88 72.0484 283.535 72.0252 283.16 72.0658C282.784 72.1063 282.437 72.2482 282.117 72.4915C281.826 72.7058 281.599 72.9665 281.437 73.2735C281.28 73.5804 281.171 73.9135 281.109 74.2726C281.047 74.6259 281.017 74.988 281.017 75.3587V80.0677H279.512Z" fill="white"/>
<path d="M287.395 80.3284C286.717 80.3284 286.148 80.201 285.689 79.9461C285.235 79.6854 284.89 79.3437 284.655 78.9209C284.425 78.498 284.31 78.0347 284.31 77.5307C284.31 77.0384 284.4 76.6127 284.579 76.2536C284.764 75.8886 285.022 75.5875 285.352 75.35C285.683 75.1067 286.078 74.9156 286.537 74.7765C286.969 74.6549 287.451 74.5506 287.983 74.4638C288.521 74.3711 289.064 74.2871 289.613 74.2118C290.162 74.1365 290.675 74.0641 291.151 73.9946L290.613 74.3161C290.63 73.482 290.468 72.8651 290.126 72.4654C289.79 72.0658 289.207 71.866 288.378 71.866C287.829 71.866 287.347 71.9963 286.932 72.2569C286.523 72.5118 286.235 72.9288 286.067 73.508L284.647 73.0649C284.865 72.2424 285.288 71.5966 285.916 71.1274C286.543 70.6583 287.369 70.4237 288.395 70.4237C289.218 70.4237 289.924 70.5772 290.513 70.8842C291.106 71.1854 291.532 71.643 291.79 72.2569C291.919 72.5465 292 72.8622 292.034 73.204C292.067 73.5399 292.084 73.8932 292.084 74.2639V80.0677H290.756V77.8175L291.067 78.026C290.725 78.7848 290.246 79.3582 289.63 79.7463C289.019 80.1343 288.274 80.3284 287.395 80.3284ZM287.622 79.0338C288.159 79.0338 288.624 78.9354 289.017 78.7384C289.414 78.5357 289.734 78.2721 289.975 77.9478C290.216 77.6176 290.372 77.2585 290.445 76.8704C290.529 76.5808 290.574 76.2593 290.58 75.906C290.591 75.5469 290.597 75.2718 290.597 75.0806L291.118 75.3152C290.63 75.3847 290.151 75.4513 289.681 75.515C289.21 75.5788 288.765 75.6483 288.344 75.7236C287.924 75.7931 287.546 75.8771 287.21 75.9755C286.963 76.0566 286.731 76.1609 286.512 76.2883C286.299 76.4157 286.126 76.5808 285.991 76.7835C285.862 76.9805 285.798 77.2266 285.798 77.5221C285.798 77.7769 285.86 78.0202 285.983 78.2519C286.112 78.4836 286.308 78.6718 286.571 78.8166C286.84 78.9614 287.19 79.0338 287.622 79.0338Z" fill="white"/>
<path d="M300.06 80.0677V75.3673C300.06 74.9213 300.02 74.4927 299.942 74.0815C299.869 73.6702 299.737 73.3024 299.547 72.9781C299.362 72.6479 299.11 72.3873 298.791 72.1961C298.477 72.005 298.079 71.9094 297.597 71.9094C297.222 71.9094 296.88 71.976 296.572 72.1092C296.269 72.2367 296.009 72.4336 295.79 72.7C295.572 72.9665 295.401 73.3024 295.278 73.7079C295.16 74.1075 295.101 74.5796 295.101 75.1241L294.118 74.8113C294.118 73.9019 294.275 73.1229 294.588 72.4741C294.908 71.8196 295.353 71.3186 295.925 70.9711C296.502 70.6177 297.18 70.4411 297.959 70.4411C298.547 70.4411 299.048 70.5366 299.463 70.7278C299.877 70.9189 300.222 71.1738 300.497 71.4924C300.771 71.8051 300.987 72.1585 301.144 72.5523C301.301 72.9404 301.41 73.3372 301.471 73.7426C301.539 74.1423 301.572 74.5217 301.572 74.8808V80.0677H300.06ZM293.588 80.0677V70.6843H294.933V73.1953H295.101V80.0677H293.588Z" fill="white"/>
<path d="M306.566 80.3284C305.72 80.3284 304.995 80.1112 304.389 79.6768C303.784 79.2365 303.317 78.6428 302.986 77.8956C302.661 77.1485 302.499 76.3057 302.499 75.3673C302.499 74.429 302.661 73.5862 302.986 72.839C303.317 72.0919 303.784 71.5039 304.389 71.0753C304.995 70.6409 305.717 70.4237 306.558 70.4237C307.415 70.4237 308.135 70.638 308.717 71.0666C309.3 71.4953 309.74 72.0832 310.037 72.8304C310.339 73.5776 310.491 74.4232 310.491 75.3673C310.491 76.2999 310.339 77.1427 310.037 77.8956C309.74 78.6428 309.3 79.2365 308.717 79.6768C308.135 80.1112 307.418 80.3284 306.566 80.3284ZM306.751 78.9122C307.362 78.9122 307.863 78.7616 308.255 78.4604C308.647 78.1534 308.936 77.7335 309.121 77.2006C309.311 76.6619 309.407 76.0508 309.407 75.3673C309.407 74.6723 309.311 74.0612 309.121 73.5341C308.936 73.0012 308.65 72.5871 308.264 72.2917C307.877 71.9905 307.387 71.8399 306.793 71.8399C306.177 71.8399 305.667 71.9963 305.263 72.3091C304.866 72.6218 304.569 73.0447 304.373 73.5776C304.182 74.1104 304.087 74.707 304.087 75.3673C304.087 76.0335 304.185 76.6358 304.381 77.1745C304.577 77.7074 304.871 78.1302 305.263 78.443C305.661 78.7558 306.157 78.9122 306.751 78.9122ZM309.407 80.0677V73.1605H309.239V67.5565H310.743V80.0677H309.407Z" fill="white"/>
<path d="M318.681 80.3284C317.835 80.3284 317.109 80.1112 316.504 79.6768C315.899 79.2365 315.431 78.6428 315.101 77.8956C314.776 77.1485 314.613 76.3057 314.613 75.3673C314.613 74.429 314.776 73.5862 315.101 72.839C315.431 72.0919 315.899 71.5039 316.504 71.0753C317.109 70.6409 317.832 70.4237 318.673 70.4237C319.53 70.4237 320.25 70.638 320.832 71.0666C321.415 71.4953 321.855 72.0832 322.152 72.8304C322.454 73.5776 322.606 74.4232 322.606 75.3673C322.606 76.2999 322.454 77.1427 322.152 77.8956C321.855 78.6428 321.415 79.2365 320.832 79.6768C320.25 80.1112 319.533 80.3284 318.681 80.3284ZM318.866 78.9122C319.477 78.9122 319.978 78.7616 320.37 78.4604C320.762 78.1534 321.051 77.7335 321.236 77.2006C321.426 76.6619 321.522 76.0508 321.522 75.3673C321.522 74.6723 321.426 74.0612 321.236 73.5341C321.051 73.0012 320.765 72.5871 320.379 72.2917C319.992 71.9905 319.502 71.8399 318.908 71.8399C318.292 71.8399 317.782 71.9963 317.378 72.3091C316.981 72.6218 316.684 73.0447 316.488 73.5776C316.297 74.1104 316.202 74.707 316.202 75.3673C316.202 76.0335 316.3 76.6358 316.496 77.1745C316.692 77.7074 316.986 78.1302 317.378 78.443C317.776 78.7558 318.272 78.9122 318.866 78.9122ZM321.522 80.0677V73.1605H321.353V67.5565H322.858V80.0677H321.522Z" fill="white"/>
<path d="M328.473 80.3284C327.582 80.3284 326.804 80.1257 326.137 79.7202C325.476 79.3089 324.96 78.7384 324.59 78.0086C324.221 77.273 324.036 76.4157 324.036 75.4369C324.036 74.4116 324.218 73.5254 324.582 72.7782C324.946 72.0252 325.453 71.446 326.103 71.0406C326.759 70.6293 327.526 70.4237 328.406 70.4237C329.319 70.4237 330.095 70.6409 330.734 71.0753C331.378 71.5097 331.86 72.1295 332.179 72.9346C332.504 73.7397 332.644 74.6983 332.599 75.8105H331.087V75.2544C331.07 74.1017 330.843 73.2416 330.406 72.674C329.969 72.1005 329.319 71.8138 328.456 71.8138C327.532 71.8138 326.829 72.1208 326.347 72.7348C325.865 73.3488 325.624 74.2292 325.624 75.376C325.624 76.4823 325.865 77.3396 326.347 77.9478C326.829 78.556 327.515 78.8601 328.406 78.8601C329.005 78.8601 329.526 78.7181 329.969 78.4343C330.412 78.1505 330.759 77.7422 331.011 77.2093L332.448 77.7219C332.095 78.5502 331.563 79.1931 330.851 79.6507C330.146 80.1025 329.353 80.3284 328.473 80.3284ZM325.12 75.8105V74.568H331.826V75.8105H325.12Z" fill="white"/>
<path d="M337.227 80.3197C336.146 80.3197 335.258 80.0764 334.563 79.5899C333.874 79.0975 333.451 78.4112 333.294 77.5307L334.824 77.2788C334.947 77.7885 335.23 78.1939 335.672 78.4951C336.115 78.7905 336.664 78.9382 337.32 78.9382C337.941 78.9382 338.429 78.805 338.782 78.5386C339.135 78.2721 339.311 77.9101 339.311 77.4525C339.311 77.1861 339.252 76.9718 339.135 76.8096C339.017 76.6416 338.773 76.4852 338.404 76.3404C338.039 76.1956 337.488 76.0219 336.748 75.8191C335.947 75.599 335.317 75.3702 334.857 75.1328C334.398 74.8953 334.07 74.6202 333.874 74.3074C333.678 73.9946 333.58 73.6152 333.58 73.1692C333.58 72.6189 333.725 72.1382 334.017 71.7269C334.308 71.3099 334.714 70.9884 335.235 70.7625C335.762 70.5366 336.373 70.4237 337.067 70.4237C337.757 70.4237 338.373 70.5366 338.916 70.7625C339.46 70.9884 339.897 71.3099 340.227 71.7269C340.563 72.1382 340.762 72.6189 340.824 73.1692L339.294 73.4559C339.222 72.952 338.986 72.5552 338.589 72.2656C338.196 71.976 337.689 71.8225 337.067 71.8051C336.479 71.782 336 71.8891 335.63 72.1266C335.266 72.3641 335.084 72.6856 335.084 73.091C335.084 73.3169 335.151 73.5109 335.286 73.6731C335.426 73.8353 335.681 73.9888 336.051 74.1336C336.426 74.2784 336.969 74.4435 337.681 74.6288C338.482 74.8374 339.112 75.0662 339.572 75.3152C340.037 75.5585 340.367 75.8481 340.563 76.184C340.76 76.5142 340.858 76.9226 340.858 77.4091C340.858 78.3127 340.535 79.0251 339.891 79.5464C339.247 80.0619 338.359 80.3197 337.227 80.3197Z" fill="white"/>
<path d="M345.972 80.3284C345.081 80.3284 344.302 80.1257 343.636 79.7202C342.974 79.3089 342.459 78.7384 342.089 78.0086C341.719 77.273 341.535 76.4157 341.535 75.4369C341.535 74.4116 341.717 73.5254 342.081 72.7782C342.445 72.0252 342.952 71.446 343.602 71.0406C344.257 70.6293 345.025 70.4237 345.905 70.4237C346.818 70.4237 347.594 70.6409 348.233 71.0753C348.877 71.5097 349.359 72.1295 349.678 72.9346C350.003 73.7397 350.143 74.6983 350.098 75.8105H348.586V75.2544C348.569 74.1017 348.342 73.2416 347.905 72.674C347.468 72.1005 346.818 71.8138 345.955 71.8138C345.031 71.8138 344.327 72.1208 343.846 72.7348C343.364 73.3488 343.123 74.2292 343.123 75.376C343.123 76.4823 343.364 77.3396 343.846 77.9478C344.327 78.556 345.014 78.8601 345.905 78.8601C346.504 78.8601 347.025 78.7181 347.468 78.4343C347.91 78.1505 348.258 77.7422 348.51 77.2093L349.947 77.7219C349.594 78.5502 349.062 79.1931 348.35 79.6507C347.644 80.1025 346.851 80.3284 345.972 80.3284ZM342.619 75.8105V74.568H349.325V75.8105H342.619Z" fill="white"/>
<path d="M351.297 80.0677V70.6843H352.633V72.952L352.415 72.6566C352.521 72.367 352.658 72.1005 352.827 71.8573C353 71.614 353.194 71.4142 353.406 71.2578C353.642 71.0608 353.908 70.9102 354.205 70.806C354.502 70.7017 354.804 70.6409 355.112 70.6235C355.421 70.6004 355.709 70.6206 355.978 70.6843V72.1353C355.664 72.0484 355.32 72.0252 354.944 72.0658C354.569 72.1063 354.222 72.2482 353.902 72.4915C353.611 72.7058 353.384 72.9665 353.222 73.2735C353.065 73.5804 352.955 73.9135 352.894 74.2726C352.832 74.6259 352.801 74.988 352.801 75.3587V80.0677H351.297Z" fill="white"/>
<path d="M359.349 80.0677L356.054 70.6843H357.567L360.114 78.0955L362.652 70.6843H364.173L360.878 80.0677H359.349Z" fill="white"/>
<path d="M368.625 80.3284C367.734 80.3284 366.956 80.1257 366.289 79.7202C365.628 79.3089 365.112 78.7384 364.743 78.0086C364.373 77.273 364.188 76.4157 364.188 75.4369C364.188 74.4116 364.37 73.5254 364.734 72.7782C365.098 72.0252 365.605 71.446 366.255 71.0406C366.911 70.6293 367.678 70.4237 368.558 70.4237C369.471 70.4237 370.247 70.6409 370.886 71.0753C371.53 71.5097 372.012 72.1295 372.331 72.9346C372.656 73.7397 372.796 74.6983 372.752 75.8105H371.239V75.2544C371.222 74.1017 370.995 73.2416 370.558 72.674C370.121 72.1005 369.471 71.8138 368.608 71.8138C367.684 71.8138 366.981 72.1208 366.499 72.7348C366.017 73.3488 365.776 74.2292 365.776 75.376C365.776 76.4823 366.017 77.3396 366.499 77.9478C366.981 78.556 367.667 78.8601 368.558 78.8601C369.158 78.8601 369.679 78.7181 370.121 78.4343C370.564 78.1505 370.911 77.7422 371.163 77.2093L372.6 77.7219C372.247 78.5502 371.715 79.1931 371.004 79.6507C370.298 80.1025 369.505 80.3284 368.625 80.3284ZM365.272 75.8105V74.568H371.978V75.8105H365.272Z" fill="white"/>
<path d="M377.379 80.3197C376.298 80.3197 375.41 80.0764 374.715 79.5899C374.026 79.0975 373.603 78.4112 373.446 77.5307L374.976 77.2788C375.099 77.7885 375.382 78.1939 375.825 78.4951C376.267 78.7905 376.816 78.9382 377.472 78.9382C378.094 78.9382 378.581 78.805 378.934 78.5386C379.287 78.2721 379.463 77.9101 379.463 77.4525C379.463 77.1861 379.405 76.9718 379.287 76.8096C379.169 76.6416 378.926 76.4852 378.556 76.3404C378.192 76.1956 377.64 76.0219 376.9 75.8191C376.099 75.599 375.469 75.3702 375.009 75.1328C374.55 74.8953 374.222 74.6202 374.026 74.3074C373.83 73.9946 373.732 73.6152 373.732 73.1692C373.732 72.6189 373.878 72.1382 374.169 71.7269C374.46 71.3099 374.866 70.9884 375.388 70.7625C375.914 70.5366 376.525 70.4237 377.22 70.4237C377.909 70.4237 378.525 70.5366 379.068 70.7625C379.612 70.9884 380.049 71.3099 380.379 71.7269C380.716 72.1382 380.915 72.6189 380.976 73.1692L379.447 73.4559C379.374 72.952 379.139 72.5552 378.741 72.2656C378.349 71.976 377.841 71.8225 377.22 71.8051C376.631 71.782 376.152 71.8891 375.783 72.1266C375.418 72.3641 375.236 72.6856 375.236 73.091C375.236 73.3169 375.303 73.5109 375.438 73.6731C375.578 73.8353 375.833 73.9888 376.203 74.1336C376.578 74.2784 377.122 74.4435 377.833 74.6288C378.634 74.8374 379.265 75.0662 379.724 75.3152C380.189 75.5585 380.52 75.8481 380.716 76.184C380.912 76.5142 381.01 76.9226 381.01 77.4091C381.01 78.3127 380.688 79.0251 380.043 79.5464C379.399 80.0619 378.511 80.3197 377.379 80.3197Z" fill="white"/>
<path d="M389.052 80.3284C388.2 80.3284 387.483 80.1112 386.9 79.6768C386.318 79.2365 385.875 78.6428 385.573 77.8956C385.276 77.1427 385.127 76.2999 385.127 75.3673C385.127 74.4232 385.276 73.5776 385.573 72.8304C385.875 72.0832 386.318 71.4953 386.9 71.0666C387.489 70.638 388.209 70.4237 389.06 70.4237C389.901 70.4237 390.623 70.6409 391.229 71.0753C391.839 71.5039 392.307 72.0919 392.632 72.839C392.957 73.5862 393.119 74.429 393.119 75.3673C393.119 76.3057 392.957 77.1485 392.632 77.8956C392.307 78.6428 391.839 79.2365 391.229 79.6768C390.623 80.1112 389.898 80.3284 389.052 80.3284ZM384.875 80.0677V67.5565H386.379V73.1605H386.211V80.0677H384.875ZM388.867 78.9122C389.467 78.9122 389.962 78.7558 390.355 78.443C390.747 78.1302 391.041 77.7074 391.237 77.1745C391.433 76.6358 391.531 76.0335 391.531 75.3673C391.531 74.707 391.433 74.1104 391.237 73.5776C391.046 73.0447 390.75 72.6218 390.346 72.3091C389.948 71.9963 389.441 71.8399 388.825 71.8399C388.237 71.8399 387.749 71.9905 387.363 72.2917C386.976 72.5871 386.688 73.0012 386.497 73.5341C386.307 74.0612 386.211 74.6723 386.211 75.3673C386.211 76.0508 386.304 76.6619 386.489 77.2006C386.679 77.7335 386.971 78.1534 387.363 78.4604C387.755 78.7616 388.256 78.9122 388.867 78.9122Z" fill="white"/>
<path d="M398.223 80.3284C397.332 80.3284 396.553 80.1257 395.886 79.7202C395.225 79.3089 394.71 78.7384 394.34 78.0086C393.97 77.273 393.785 76.4157 393.785 75.4369C393.785 74.4116 393.967 73.5254 394.331 72.7782C394.696 72.0252 395.203 71.446 395.853 71.0406C396.508 70.6293 397.276 70.4237 398.155 70.4237C399.069 70.4237 399.845 70.6409 400.483 71.0753C401.128 71.5097 401.609 72.1295 401.929 72.9346C402.254 73.7397 402.394 74.6983 402.349 75.8105H400.836V75.2544C400.819 74.1017 400.592 73.2416 400.155 72.674C399.718 72.1005 399.069 71.8138 398.206 71.8138C397.281 71.8138 396.578 72.1208 396.096 72.7348C395.614 73.3488 395.374 74.2292 395.374 75.376C395.374 76.4823 395.614 77.3396 396.096 77.9478C396.578 78.556 397.264 78.8601 398.155 78.8601C398.755 78.8601 399.276 78.7181 399.718 78.4343C400.161 78.1505 400.508 77.7422 400.761 77.2093L402.198 77.7219C401.845 78.5502 401.312 79.1931 400.601 79.6507C399.895 80.1025 399.102 80.3284 398.223 80.3284ZM394.869 75.8105V74.568H401.576V75.8105H394.869Z" fill="white"/>
<path d="M408.615 80.0677C408.077 80.1778 407.545 80.2212 407.019 80.1981C406.497 80.1807 406.032 80.0735 405.623 79.8766C405.214 79.6739 404.904 79.3611 404.691 78.9382C404.511 78.5675 404.413 78.1939 404.396 77.8175C404.385 77.4352 404.38 77.0036 404.38 76.5229V68.0778H405.876V76.4534C405.876 76.8357 405.878 77.1629 405.884 77.4352C405.895 77.7074 405.954 77.942 406.06 78.1389C406.262 78.5096 406.582 78.7268 407.019 78.7905C407.461 78.8543 407.993 78.8369 408.615 78.7384V80.0677ZM402.539 71.9615V70.6843H408.615V71.9615H402.539ZM414.523 80.0677C413.985 80.1778 413.453 80.2212 412.927 80.1981C412.406 80.1807 411.94 80.0735 411.531 79.8766C411.123 79.6739 410.812 79.3611 410.599 78.9382C410.419 78.5675 410.321 78.1939 410.305 77.8175C410.293 77.4352 410.288 77.0036 410.288 76.5229V68.0778H411.784V76.4534C411.784 76.8357 411.786 77.1629 411.792 77.4352C411.803 77.7074 411.862 77.942 411.968 78.1389C412.17 78.5096 412.49 78.7268 412.927 78.7905C413.369 78.8543 413.901 78.8369 414.523 78.7384V80.0677ZM408.447 71.9615V70.6843H414.523V71.9615H408.447Z" fill="white"/>
<path d="M419.628 80.3284C418.737 80.3284 417.958 80.1257 417.292 79.7202C416.63 79.3089 416.115 78.7384 415.745 78.0086C415.375 77.273 415.191 76.4157 415.191 75.4369C415.191 74.4116 415.373 73.5254 415.737 72.7782C416.101 72.0252 416.608 71.446 417.258 71.0406C417.913 70.6293 418.681 70.4237 419.561 70.4237C420.474 70.4237 421.25 70.6409 421.889 71.0753C422.533 71.5097 423.015 72.1295 423.334 72.9346C423.659 73.7397 423.799 74.6983 423.754 75.8105H422.242V75.2544C422.225 74.1017 421.998 73.2416 421.561 72.674C421.124 72.1005 420.474 71.8138 419.611 71.8138C418.687 71.8138 417.983 72.1208 417.502 72.7348C417.02 73.3488 416.779 74.2292 416.779 75.376C416.779 76.4823 417.02 77.3396 417.502 77.9478C417.983 78.556 418.67 78.8601 419.561 78.8601C420.16 78.8601 420.681 78.7181 421.124 78.4343C421.566 78.1505 421.914 77.7422 422.166 77.2093L423.603 77.7219C423.25 78.5502 422.718 79.1931 422.006 79.6507C421.3 80.1025 420.507 80.3284 419.628 80.3284ZM416.275 75.8105V74.568H422.981V75.8105H416.275Z" fill="white"/>
<path d="M424.953 80.0677V70.6843H426.289V72.952L426.071 72.6566C426.177 72.367 426.314 72.1005 426.483 71.8573C426.656 71.614 426.849 71.4142 427.062 71.2578C427.298 71.0608 427.564 70.9102 427.861 70.806C428.158 70.7017 428.46 70.6409 428.768 70.6235C429.077 70.6004 429.365 70.6206 429.634 70.6843V72.1353C429.32 72.0484 428.976 72.0252 428.6 72.0658C428.225 72.1063 427.878 72.2482 427.558 72.4915C427.267 72.7058 427.04 72.9665 426.877 73.2735C426.721 73.5804 426.611 73.9135 426.55 74.2726C426.488 74.6259 426.457 74.988 426.457 75.3587V80.0677H424.953Z" fill="white"/>
<path d="M433.412 80.0677V67.2959H434.907V80.0677H433.412Z" fill="white"/>
<path d="M436.925 69.0249V67.4262H438.421V69.0249H436.925ZM436.925 80.0677V70.6843H438.421V80.0677H436.925Z" fill="white"/>
<path d="M440.262 80.0677L440.27 67.5565H441.783V75.2023L445.59 70.6843H447.531L443.522 75.376L448.002 80.0677H445.909L441.783 75.5498V80.0677H440.262Z" fill="white"/>
<path d="M451.935 80.3284C451.044 80.3284 450.265 80.1257 449.598 79.7202C448.937 79.3089 448.422 78.7384 448.052 78.0086C447.682 77.273 447.497 76.4157 447.497 75.4369C447.497 74.4116 447.679 73.5254 448.044 72.7782C448.408 72.0252 448.915 71.446 449.565 71.0406C450.22 70.6293 450.988 70.4237 451.868 70.4237C452.781 70.4237 453.557 70.6409 454.195 71.0753C454.84 71.5097 455.322 72.1295 455.641 72.9346C455.966 73.7397 456.106 74.6983 456.061 75.8105H454.548V75.2544C454.532 74.1017 454.305 73.2416 453.868 72.674C453.431 72.1005 452.781 71.8138 451.918 71.8138C450.993 71.8138 450.29 72.1208 449.809 72.7348C449.327 73.3488 449.086 74.2292 449.086 75.376C449.086 76.4823 449.327 77.3396 449.809 77.9478C450.29 78.556 450.977 78.8601 451.868 78.8601C452.467 78.8601 452.988 78.7181 453.431 78.4343C453.873 78.1505 454.221 77.7422 454.473 77.2093L455.91 77.7219C455.557 78.5502 455.025 79.1931 454.313 79.6507C453.607 80.1025 452.814 80.3284 451.935 80.3284ZM448.582 75.8105V74.568H455.288V75.8105H448.582Z" fill="white"/>
<path d="M463.398 80.311C462.815 80.311 462.314 80.2154 461.894 80.0243C461.479 79.8331 461.135 79.5783 460.86 79.2597C460.586 78.9411 460.37 78.5878 460.213 78.1997C460.056 77.8117 459.944 77.4149 459.877 77.0094C459.815 76.604 459.784 76.2246 459.784 75.8713V70.6843H461.297V75.3847C461.297 75.8249 461.336 76.2507 461.415 76.6619C461.493 77.0732 461.625 77.4439 461.81 77.774C462 78.1042 462.252 78.3648 462.566 78.556C462.885 78.7471 463.283 78.8427 463.759 78.8427C464.135 78.8427 464.477 78.7761 464.785 78.6428C465.093 78.5096 465.356 78.3127 465.575 78.052C465.793 77.7856 465.961 77.4496 466.079 77.0442C466.197 76.6387 466.255 76.1667 466.255 75.628L467.239 75.9408C467.239 76.8444 467.079 77.6234 466.76 78.2779C466.446 78.9325 466.001 79.4364 465.423 79.7897C464.852 80.1372 464.177 80.311 463.398 80.311ZM466.424 80.0677V77.5568H466.255V70.6843H467.76V80.0677H466.424Z" fill="white"/>
<path d="M472.869 80.3197C471.788 80.3197 470.9 80.0764 470.205 79.5899C469.516 79.0975 469.093 78.4112 468.936 77.5307L470.466 77.2788C470.589 77.7885 470.872 78.1939 471.315 78.4951C471.757 78.7905 472.306 78.9382 472.962 78.9382C473.584 78.9382 474.071 78.805 474.424 78.5386C474.777 78.2721 474.953 77.9101 474.953 77.4525C474.953 77.1861 474.895 76.9718 474.777 76.8096C474.659 76.6416 474.416 76.4852 474.046 76.3404C473.682 76.1956 473.13 76.0219 472.39 75.8191C471.589 75.599 470.959 75.3702 470.499 75.1328C470.04 74.8953 469.712 74.6202 469.516 74.3074C469.32 73.9946 469.222 73.6152 469.222 73.1692C469.222 72.6189 469.368 72.1382 469.659 71.7269C469.95 71.3099 470.356 70.9884 470.878 70.7625C471.404 70.5366 472.015 70.4237 472.71 70.4237C473.399 70.4237 474.015 70.5366 474.558 70.7625C475.102 70.9884 475.539 71.3099 475.87 71.7269C476.206 72.1382 476.405 72.6189 476.466 73.1692L474.937 73.4559C474.864 72.952 474.629 72.5552 474.231 72.2656C473.839 71.976 473.331 71.8225 472.71 71.8051C472.121 71.782 471.642 71.8891 471.273 72.1266C470.908 72.3641 470.726 72.6856 470.726 73.091C470.726 73.3169 470.793 73.5109 470.928 73.6731C471.068 73.8353 471.323 73.9888 471.693 74.1336C472.068 74.2784 472.612 74.4435 473.323 74.6288C474.124 74.8374 474.755 75.0662 475.214 75.3152C475.679 75.5585 476.01 75.8481 476.206 76.184C476.402 76.5142 476.5 76.9226 476.5 77.4091C476.5 78.3127 476.178 79.0251 475.533 79.5464C474.889 80.0619 474.001 80.3197 472.869 80.3197Z" fill="white"/>
</svg>
